<?xml version="1.0" encoding="UTF-8"?>
<svg width="400px" height="400px" viewBox="0 0 400 400" version="1.1" xmlns="http://www.w3.org/2000/svg" xmlns:xlink="http://www.w3.org/1999/xlink">
    <title>logo</title>
    <g id="logo" stroke="none" stroke-width="1" fill="none" fill-rule="evenodd">
        <g id="reddio-logo" fill="#BD3227" fill-rule="nonzero">
            <path d="M287.131427,89.2613689 L209.964856,89.2613689 L254.480197,70.3035553 C265.344623,65.4057751 270.349796,52.7511035 265.778298,41.7383621 C261.206799,30.7256208 248.715249,25.3456089 237.581317,29.5941449 L87.5850552,90.2691264 C37.0977792,110.693676 0,148.060525 0,202.758806 L0,250.502563 C0,313.083304 50.6368236,364 112.878542,364 L287.131427,364 C349.363176,364 400,313.113237 400,250.502563 L400,202.758806 C399.960121,140.178065 349.323297,89.2613689 287.131427,89.2613689 Z M356.102789,250.502563 C356.102789,288.747458 325.196281,319.858228 287.131427,319.858228 L112.878542,319.858228 C74.8435981,319.858228 43.8673014,288.747458 43.8673014,250.502563 L43.8673014,202.758806 C43.8673014,159.455168 90.9748012,133.403141 112.848633,133.403141 L287.131427,133.403141 C325.166372,133.403141 356.102789,164.523889 356.102789,202.758806 L356.102789,250.502563 Z" id="形状"></path>
            <ellipse id="椭圆形" cx="334.587872" cy="21.9511527" rx="21.9336507" ry="21.9511527"></ellipse>
            <path d="M110.784876,265.86837 C98.3325441,265.86837 88.2430647,256.04024 88.2430647,243.917217 L88.2430647,215.270963 C88.2430647,203.14794 98.3325441,193.31981 110.784876,193.31981 C123.237207,193.31981 133.326687,203.14794 133.326687,215.270963 L133.326687,243.917217 C133.326687,256.04024 123.237207,265.86837 110.784876,265.86837 Z" id="路径"></path>
            <path d="M200.93218,276.125545 C188.818823,276.125545 178.998529,268.522464 178.998529,259.16329 L178.998529,197.330885 C178.998529,187.951756 188.818823,180.36863 200.93218,180.36863 C213.045537,180.36863 222.865831,187.981689 222.865831,197.330885 L222.865831,259.133357 C222.865831,268.522464 213.045537,276.125545 200.93218,276.125545 Z" id="路径"></path>
            <path d="M289.324793,264.990324 C277.211172,264.990324 267.391142,255.162458 267.391142,243.039171 L267.391142,214.392917 C267.391142,202.26963 277.211172,192.441764 289.324793,192.441764 C301.438413,192.441764 311.258443,202.26963 311.258443,214.392917 L311.258443,243.039171 C311.258443,255.162458 301.438413,264.990324 289.324793,264.990324 Z" id="路径"></path>
        </g>
    </g>
</svg>